<svg width="147" height="66" viewBox="0 0 147 66" fill="none" xmlns="http://www.w3.org/2000/svg">
<path d="M14.3 50V18.954C14.988 18.7533 15.6473 18.653 16.278 18.653C17.0233 18.653 17.697 18.7533 18.299 18.954V46.259H33.478C33.6213 46.4883 33.7073 46.8467 33.736 47.334C33.7933 47.7927 33.8077 48.28 33.779 48.796C33.7503 49.2833 33.65 49.6847 33.478 50H14.3ZM35.1012 46.99C35.8179 46.7607 36.7066 46.431 37.7673 46.001C38.8279 45.5423 39.8313 45.0693 40.7773 44.582C39.8313 42.7473 39.3583 40.626 39.3583 38.218C39.3583 36.4407 39.6879 34.8783 40.3473 33.531C41.0066 32.155 41.9239 31.08 43.0993 30.306C44.2746 29.5033 45.6076 29.102 47.0983 29.102C48.3596 29.102 49.4776 29.403 50.4523 30.005C51.4269 30.5783 52.1866 31.381 52.7313 32.413C53.2759 33.445 53.5483 34.6347 53.5483 35.982C53.4336 39.422 50.9969 42.6757 46.2383 45.743C47.1843 46.5457 48.5029 46.947 50.1943 46.947C50.5956 46.947 50.9109 47.119 51.1403 47.463C51.3696 47.807 51.4843 48.2657 51.4843 48.839C51.4843 49.3837 51.3553 49.8137 51.0973 50.129C50.8393 50.4443 50.4666 50.602 49.9793 50.602C48.4886 50.602 47.0983 50.344 45.8083 49.828C44.5469 49.2833 43.5293 48.538 42.7553 47.592C41.6946 48.1367 40.5623 48.667 39.3583 49.183C38.1829 49.6703 37.1796 50.043 36.3483 50.301C35.8896 49.8997 35.5599 49.4267 35.3592 48.882C35.1299 48.3373 35.0439 47.7067 35.1012 46.99ZM43.0993 37.874C43.0993 39.9093 43.4289 41.6007 44.0883 42.948C46.0663 41.6293 47.4996 40.454 48.3883 39.422C49.2769 38.3613 49.7499 37.2147 49.8073 35.982C49.8073 34.95 49.5493 34.1473 49.0333 33.574C48.5459 32.972 47.8579 32.671 46.9693 32.671C45.8513 32.671 44.9196 33.1727 44.1743 34.176C43.4576 35.1793 43.0993 36.412 43.0993 37.874ZM50.0817 50.602C49.6804 50.602 49.3507 50.43 49.0927 50.086C48.8347 49.742 48.7057 49.312 48.7057 48.796C48.7057 47.5633 49.2217 46.947 50.2537 46.947C52.2317 46.947 54.0234 46.4167 55.6287 45.356C57.234 44.2667 58.5097 42.819 59.4557 41.013C60.4017 39.207 60.8747 37.2147 60.8747 35.036C60.8747 34.5773 60.846 34.1043 60.7887 33.617C60.7314 33.1297 60.674 32.7857 60.6167 32.585C60.3014 32.241 59.986 31.7823 59.6707 31.209C59.3554 30.6357 59.0974 30.0623 58.8967 29.489C58.7247 28.887 58.6387 28.371 58.6387 27.941C58.9827 27.425 59.556 27.0093 60.3587 26.694C61.19 26.35 62.007 26.2497 62.8097 26.393C63.0677 26.8517 63.3114 27.4107 63.5407 28.07C63.77 28.7007 63.9707 29.3743 64.1427 30.091C64.8594 30.0337 65.7337 29.876 66.7657 29.618C67.683 29.4173 68.414 29.2883 68.9587 29.231C69.532 29.145 70.0194 29.102 70.4207 29.102C71.9687 29.102 73.187 29.6897 74.0757 30.865C74.9644 32.0117 75.4087 33.574 75.4087 35.552V42.475C75.4087 44.1377 75.6237 45.2987 76.0537 45.958C76.5124 46.5887 77.1717 46.904 78.0317 46.904C78.433 46.904 78.734 47.076 78.9347 47.42C79.164 47.764 79.2787 48.2227 79.2787 48.796C79.2787 49.2547 79.1497 49.6703 78.8917 50.043C78.6624 50.4157 78.2754 50.602 77.7307 50.602C75.982 50.602 74.5057 50.0143 73.3017 48.839C72.0977 47.635 71.4957 45.6713 71.4957 42.948V36.283C71.4957 34.993 71.3524 34.09 71.0657 33.574C70.779 33.058 70.263 32.8 69.5177 32.8C69.2597 32.8 68.973 32.8287 68.6577 32.886C68.3424 32.9433 67.7834 33.058 66.9807 33.23C66.0347 33.4307 65.2607 33.574 64.6587 33.66C64.6874 34.004 64.7017 34.3337 64.7017 34.649C64.7017 37.5157 64.0854 40.1673 62.8527 42.604C61.62 45.012 59.9144 46.9183 57.7357 48.323C55.299 49.8423 52.7477 50.602 50.0817 50.602ZM77.7253 50.602C77.3527 50.602 77.0517 50.43 76.8223 50.086C76.593 49.742 76.4783 49.2977 76.4783 48.753C76.4783 48.1797 76.6217 47.7353 76.9083 47.42C77.1663 47.076 77.5247 46.904 77.9833 46.904C79.0153 46.904 80.1333 46.4883 81.3373 45.657C82.5413 44.8257 83.7023 43.679 84.8203 42.217C84.3617 40.1243 84.1323 37.2003 84.1323 33.445V21.491C84.1323 19.1117 84.204 17.191 84.3473 15.729C84.5193 14.267 84.7917 13.0487 85.1643 12.074C85.709 10.6407 86.4973 9.537 87.5293 8.763C88.5613 7.989 89.7797 7.602 91.1843 7.602C93.1337 7.602 94.696 8.56233 95.8713 10.483C97.0467 12.375 97.6343 14.9263 97.6343 18.137C97.6343 20.8603 97.2903 23.6697 96.6023 26.565C95.943 29.4603 94.9683 32.327 93.6783 35.165C92.3883 37.9743 90.826 40.626 88.9913 43.12C89.0773 43.3207 89.1633 43.507 89.2493 43.679C89.8513 44.7397 90.5537 45.528 91.3563 46.044C92.1877 46.5313 93.2053 46.775 94.4093 46.775C95.6993 46.775 96.8317 46.4167 97.8063 45.7C98.781 44.9833 99.5407 43.9943 100.085 42.733C100.63 41.443 100.902 39.9667 100.902 38.304C100.902 37.702 100.859 37.1 100.773 36.498C98.9673 35.3513 97.7777 34.3337 97.2043 33.445C97.405 32.8717 97.7203 32.327 98.1503 31.811C98.609 31.2663 99.1107 30.8363 99.6553 30.521C100.2 30.177 100.716 30.005 101.203 30.005C101.863 30.005 102.465 30.3633 103.009 31.08C103.554 31.768 103.984 32.6997 104.299 33.875C104.643 35.0217 104.815 36.2973 104.815 37.702C104.815 40.282 104.385 42.5323 103.525 44.453C102.694 46.345 101.49 47.8213 99.9133 48.882C98.3653 49.914 96.5307 50.43 94.4093 50.43C90.654 50.43 87.945 49.0253 86.2823 46.216C83.645 49.14 80.7927 50.602 77.7253 50.602ZM87.7443 32.585C87.7443 34.907 87.816 36.8133 87.9593 38.304C89.9373 34.9213 91.428 31.4957 92.4313 28.027C93.4633 24.5583 93.9793 21.2473 93.9793 18.094C93.9793 13.4787 92.976 11.171 90.9693 11.171C89.794 11.171 88.9483 11.9593 88.4323 13.536C87.9737 14.9407 87.7443 17.4203 87.7443 20.975V32.585ZM119.462 50.602C117.656 50.602 116.065 50.172 114.689 49.312C113.342 48.452 112.281 47.248 111.507 45.7C110.762 44.152 110.389 42.3747 110.389 40.368C110.389 38.6193 110.676 36.9997 111.249 35.509C108.468 36.1683 105.458 36.498 102.219 36.498C101.789 36.498 101.445 36.326 101.187 35.982C100.929 35.6093 100.8 35.1507 100.8 34.606C100.8 33.4307 101.273 32.843 102.219 32.843C107.064 32.843 111.507 32.0117 115.549 30.349C116.982 29.5177 118.545 29.102 120.236 29.102C121.239 29.102 122.228 29.3027 123.203 29.704C124.178 30.0767 124.995 30.5927 125.654 31.252V29.489C125.912 29.403 126.213 29.3313 126.557 29.274C126.901 29.2167 127.259 29.188 127.632 29.188C128.32 29.188 128.965 29.2883 129.567 29.489V42.475C129.567 44.1377 129.782 45.2987 130.212 45.958C130.671 46.5887 131.33 46.904 132.19 46.904C132.505 46.904 132.849 46.8323 133.222 46.689C133.595 46.5457 133.982 46.3307 134.383 46.044C134.87 46.2733 135.272 46.6747 135.587 47.248C135.902 47.7927 136.046 48.3373 136.017 48.882C135.558 49.398 134.971 49.8137 134.254 50.129C133.537 50.4443 132.763 50.602 131.932 50.602H131.889C130.714 50.602 129.639 50.3297 128.664 49.785C127.689 49.2403 126.944 48.3803 126.428 47.205C125.597 48.2657 124.579 49.097 123.375 49.699C122.2 50.301 120.895 50.602 119.462 50.602ZM114.388 40.368C114.388 42.4033 114.847 44.0087 115.764 45.184C116.71 46.3307 118 46.904 119.634 46.904C121.44 46.904 122.888 46.2447 123.977 44.926C125.095 43.5787 125.654 41.8157 125.654 39.637V35.38C125.081 34.606 124.35 33.9897 123.461 33.531C122.572 33.0437 121.655 32.8 120.709 32.8C119.476 32.8 118.387 33.1297 117.441 33.789C116.495 34.4483 115.75 35.3513 115.205 36.498C114.66 37.616 114.388 38.906 114.388 40.368Z" fill="#42AE61"/>
</svg>
